<mxfile host="app.diagrams.net" modified="2023-04-12T09:17:54.225Z" agent="5.0 (Windows NT 10.0; Win64; x64) AppleWebKit/537.36 (KHTML, like Gecko) Chrome/112.0.0.0 Safari/537.36 Edg/112.0.1722.34" etag="XDrd8KhiLeWykANGHIHG" version="21.0.2" type="github">
  <diagram name="第 1 页" id="VVICv3MEbFnPDp1ta3be">
    <mxGraphModel dx="2017" dy="1124" grid="1" gridSize="10" guides="1" tooltips="1" connect="1" arrows="1" fold="1" page="1" pageScale="1" pageWidth="827" pageHeight="1169" math="0" shadow="0">
      <root>
        <mxCell id="0" />
        <mxCell id="1" parent="0" />
        <mxCell id="kI2FuoinJwH_u-P8z39m-5" style="edgeStyle=orthogonalEdgeStyle;rounded=0;orthogonalLoop=1;jettySize=auto;html=1;exitX=0.5;exitY=1;exitDx=0;exitDy=0;exitPerimeter=0;entryX=0.5;entryY=0;entryDx=0;entryDy=0;" edge="1" parent="1" source="kI2FuoinJwH_u-P8z39m-1" target="kI2FuoinJwH_u-P8z39m-3">
          <mxGeometry relative="1" as="geometry" />
        </mxCell>
        <mxCell id="kI2FuoinJwH_u-P8z39m-6" style="edgeStyle=orthogonalEdgeStyle;rounded=0;orthogonalLoop=1;jettySize=auto;html=1;entryX=0.5;entryY=0;entryDx=0;entryDy=0;" edge="1" parent="1" source="kI2FuoinJwH_u-P8z39m-1" target="kI2FuoinJwH_u-P8z39m-4">
          <mxGeometry relative="1" as="geometry">
            <Array as="points">
              <mxPoint x="400" y="130" />
              <mxPoint x="580" y="130" />
            </Array>
          </mxGeometry>
        </mxCell>
        <mxCell id="kI2FuoinJwH_u-P8z39m-1" value="开始" style="strokeWidth=2;html=1;shape=mxgraph.flowchart.terminator;whiteSpace=wrap;" vertex="1" parent="1">
          <mxGeometry x="350" y="40" width="100" height="60" as="geometry" />
        </mxCell>
        <mxCell id="kI2FuoinJwH_u-P8z39m-2" value="结束" style="strokeWidth=2;html=1;shape=mxgraph.flowchart.terminator;whiteSpace=wrap;" vertex="1" parent="1">
          <mxGeometry x="350" y="620" width="100" height="60" as="geometry" />
        </mxCell>
        <mxCell id="kI2FuoinJwH_u-P8z39m-11" style="edgeStyle=orthogonalEdgeStyle;rounded=0;orthogonalLoop=1;jettySize=auto;html=1;entryX=0.5;entryY=0;entryDx=0;entryDy=0;" edge="1" parent="1" source="kI2FuoinJwH_u-P8z39m-3" target="kI2FuoinJwH_u-P8z39m-7">
          <mxGeometry relative="1" as="geometry" />
        </mxCell>
        <mxCell id="kI2FuoinJwH_u-P8z39m-3" value="YOLO物体检测" style="rounded=1;whiteSpace=wrap;html=1;" vertex="1" parent="1">
          <mxGeometry x="160" y="160" width="120" height="60" as="geometry" />
        </mxCell>
        <mxCell id="kI2FuoinJwH_u-P8z39m-12" style="edgeStyle=orthogonalEdgeStyle;rounded=0;orthogonalLoop=1;jettySize=auto;html=1;entryX=0.5;entryY=0;entryDx=0;entryDy=0;" edge="1" parent="1" source="kI2FuoinJwH_u-P8z39m-4" target="kI2FuoinJwH_u-P8z39m-8">
          <mxGeometry relative="1" as="geometry" />
        </mxCell>
        <mxCell id="kI2FuoinJwH_u-P8z39m-4" value="StereoNet深度估计" style="rounded=1;whiteSpace=wrap;html=1;" vertex="1" parent="1">
          <mxGeometry x="520" y="160" width="120" height="60" as="geometry" />
        </mxCell>
        <mxCell id="kI2FuoinJwH_u-P8z39m-15" style="edgeStyle=orthogonalEdgeStyle;rounded=0;orthogonalLoop=1;jettySize=auto;html=1;entryX=0.5;entryY=0;entryDx=0;entryDy=0;" edge="1" parent="1" source="kI2FuoinJwH_u-P8z39m-7" target="kI2FuoinJwH_u-P8z39m-9">
          <mxGeometry relative="1" as="geometry">
            <Array as="points">
              <mxPoint x="220" y="380" />
              <mxPoint x="400" y="380" />
            </Array>
          </mxGeometry>
        </mxCell>
        <mxCell id="kI2FuoinJwH_u-P8z39m-7" value="遍历所有物体检测框" style="rounded=1;whiteSpace=wrap;html=1;" vertex="1" parent="1">
          <mxGeometry x="160" y="280" width="120" height="60" as="geometry" />
        </mxCell>
        <mxCell id="kI2FuoinJwH_u-P8z39m-16" style="edgeStyle=orthogonalEdgeStyle;rounded=0;orthogonalLoop=1;jettySize=auto;html=1;" edge="1" parent="1" source="kI2FuoinJwH_u-P8z39m-8">
          <mxGeometry relative="1" as="geometry">
            <mxPoint x="400" y="420" as="targetPoint" />
            <Array as="points">
              <mxPoint x="580" y="380" />
              <mxPoint x="400" y="380" />
            </Array>
          </mxGeometry>
        </mxCell>
        <mxCell id="kI2FuoinJwH_u-P8z39m-8" value="对深度图采样并转化为距离值" style="rounded=1;whiteSpace=wrap;html=1;" vertex="1" parent="1">
          <mxGeometry x="520" y="280" width="120" height="60" as="geometry" />
        </mxCell>
        <mxCell id="kI2FuoinJwH_u-P8z39m-17" style="edgeStyle=orthogonalEdgeStyle;rounded=0;orthogonalLoop=1;jettySize=auto;html=1;entryX=0.5;entryY=0;entryDx=0;entryDy=0;" edge="1" parent="1" source="kI2FuoinJwH_u-P8z39m-9" target="kI2FuoinJwH_u-P8z39m-10">
          <mxGeometry relative="1" as="geometry" />
        </mxCell>
        <mxCell id="kI2FuoinJwH_u-P8z39m-9" value="检测结果与深度信息匹配" style="rounded=1;whiteSpace=wrap;html=1;" vertex="1" parent="1">
          <mxGeometry x="340" y="420" width="120" height="60" as="geometry" />
        </mxCell>
        <mxCell id="kI2FuoinJwH_u-P8z39m-18" style="edgeStyle=orthogonalEdgeStyle;rounded=0;orthogonalLoop=1;jettySize=auto;html=1;entryX=0.5;entryY=0;entryDx=0;entryDy=0;entryPerimeter=0;" edge="1" parent="1" source="kI2FuoinJwH_u-P8z39m-10" target="kI2FuoinJwH_u-P8z39m-2">
          <mxGeometry relative="1" as="geometry" />
        </mxCell>
        <mxCell id="kI2FuoinJwH_u-P8z39m-10" value="将结果字符串化" style="rounded=1;whiteSpace=wrap;html=1;" vertex="1" parent="1">
          <mxGeometry x="340" y="520" width="120" height="60" as="geometry" />
        </mxCell>
      </root>
    </mxGraphModel>
  </diagram>
</mxfile>
